<svg xmlns="http://www.w3.org/2000/svg" width="1200" height="420" viewBox="0 0 1200 420">

<defs>

<linearGradient id="bg" x1="0%" y1="0%" x2="100%" y2="100%">
<stop offset="0%" stop-color="#050505"/>
<stop offset="100%" stop-color="#111111"/>
</linearGradient>

<linearGradient id="green" x1="0%" y1="0%" x2="100%" y2="0%">
<stop offset="0%" stop-color="#00ff41"/>
<stop offset="100%" stop-color="#00c853"/>
</linearGradient>

<filter id="glow">
<feGaussianBlur stdDeviation="3"/>
</filter>

<style><![CDATA[
.title{
font:700 22px monospace;
fill:#00ff41;
}

.text{
font:18px monospace;
fill:white;
}

.barbg{
fill:#222;
}

.bar{
fill:url(#green);
}

]]></style>

</defs>

<rect
width="1200"
height="420"
rx="18"
fill="url(#bg)"
stroke="#00ff41"
stroke-width="2"/>

<circle cx="35" cy="35" r="8" fill="#ff605c"/>
<circle cx="60" cy="35" r="8" fill="#ffbd44"/>
<circle cx="85" cy="35" r="8" fill="#00ca4e"/>

<text x="120" y="42" class="title">

terminal@rvimal

</text>

<text x="40" y="90" class="text">

$ whoami

</text>

<text x="40" y="130" class="title">

R.V. VIMAL

</text>

<text x="40" y="165" class="text">

Artificial Intelligence Engineer

</text>

<text x="40" y="210" class="text">

Python

</text>

<rect x="170" y="195" width="300" height="18" rx="8" class="barbg"/>

<rect x="170" y="195" width="285" height="18" rx="8" class="bar">

<animate attributeName="width"
values="0;285"
dur="2s"
fill="freeze"/>

</rect>

<text x="480" y="210" class="text">

95%

</text>

<text x="40" y="255" class="text">

React

</text>

<rect x="170" y="240" width="300" height="18" rx="8" class="barbg"/>

<rect x="170" y="240" width="270" height="18" rx="8" class="bar">

<animate attributeName="width"
values="0;270"
dur="2.4s"
fill="freeze"/>

</rect>

<text x="480" y="255" class="text">

90%

</text>

<text x="40" y="300" class="text">

FastAPI

</text>

<rect x="170" y="285" width="300" height="18" rx="8" class="barbg"/>

<rect x="170" y="285" width="255" height="18" rx="8" class="bar">

<animate attributeName="width"
values="0;255"
dur="2.8s"
fill="freeze"/>

</rect>

<text x="480" y="300" class="text">

85%

</text>

<text x="40" y="345" class="text">

LangChain

</text>

<rect x="170" y="330" width="300" height="18" rx="8" class="barbg"/>

<rect x="170" y="330" width="240" height="18" rx="8" class="bar">

<animate attributeName="width"
values="0;240"
dur="3.2s"
fill="freeze"/>

</rect>

<text x="480" y="345" class="text">

80%

</text>

<text
x="760"
y="130"
font-family="monospace"
font-size="90"
fill="#00ff41"
filter="url(#glow)">

AI

</text>

<text
x="760"
y="190"
font-family="monospace"
font-size="20"
fill="white">

Status : ONLINE 🟢

</text>

<text
x="760"
y="230"
font-family="monospace"
font-size="18"
fill="#00ff41">

Building AI Products...

</text>

<text
x="760"
y="260"
font-family="monospace"
font-size="18"
fill="#00ff41">

Learning Agentic AI...

</text>

<text
x="760"
y="290"
font-family="monospace"
font-size="18"
fill="#00ff41">

Deploying Projects...

</text>

</svg>